Coordinates
version=1
nRows=27
nColumns=12
inDegrees=yes

Units are S.I. units (second, meters, Newtons, ...)
Angles are in degrees

endheader
time	SC_y	SC_z	SC_x	AC_y	AC_z	AC_x	GH_y	GH_z	GH_yy	EL_x	PS_y
       0.0              -13.36          16.86          54.91           46.6          -6.08          -13.7           35.6          1.258         -135.1           27.0          20.06
  0.009572              -13.36          16.86          54.91           46.6          -6.08         -13.69           35.6          1.265         -135.1          27.01          20.07
   0.01914              -13.37          16.86          54.91          46.59          -6.08         -13.69          35.59          1.272         -135.1          27.02          20.07
   0.02872              -13.37          16.86          54.91          46.59         -6.079         -13.69          35.59           1.28         -135.0          27.02          20.08
   0.03829              -13.38          16.86          54.92          46.59         -6.079         -13.68          35.58          1.288         -135.0          27.03          20.08
   0.04786              -13.39          16.87          54.92          46.59         -6.079         -13.68          35.57          1.297         -135.0          27.04          20.09
   0.05743              -13.39          16.87          54.92          46.59         -6.078         -13.68          35.57          1.306         -135.0          27.04           20.1
     0.067               -13.4          16.87          54.92          46.59         -6.078         -13.67          35.56          1.316         -134.9          27.05           20.1
   0.07658              -13.41          16.88          54.93          46.59         -6.078         -13.67          35.55          1.326         -134.9          27.06          20.11
   0.08615              -13.42          16.88          54.93          46.59         -6.077         -13.66          35.55          1.338         -134.9          27.07          20.12
   0.09572              -13.43          16.88          54.93          46.58         -6.077         -13.66          35.54           1.35         -134.8          27.08          20.13
    0.1053              -13.44          16.89          54.94          46.58         -6.076         -13.65          35.53          1.363         -134.8          27.09          20.14
    0.1149              -13.45          16.89          54.94          46.58         -6.076         -13.64          35.52          1.377         -134.7           27.1          20.15
    0.1244              -13.46          16.89          54.95          46.58         -6.075         -13.64          35.51          1.393         -134.7          27.12          20.16
     0.134              -13.47           16.9          54.95          46.58         -6.075         -13.63           35.5          1.409         -134.6          27.13          20.17
    0.1436              -13.48           16.9          54.96          46.57         -6.074         -13.62          35.49          1.427         -134.6          27.15          20.18
    0.1532               -13.5          16.91          54.96          46.57         -6.073         -13.61          35.48          1.447         -134.5          27.16          20.19
    0.1627              -13.52          16.91          54.97          46.57         -6.072          -13.6          35.46          1.468         -134.4          27.18          20.21
    0.1723              -13.53          16.92          54.97          46.56         -6.072         -13.59          35.45          1.491         -134.4           27.2          20.22
    0.1819              -13.55          16.93          54.98          46.56         -6.071         -13.58          35.43          1.517         -134.3          27.22          20.24
    0.1914              -13.57          16.93          54.99          46.56          -6.07         -13.56          35.41          1.545         -134.2          27.24          20.26
     0.201               -13.6          16.94           55.0          46.55         -6.068         -13.55          35.39          1.575         -134.1          27.27          20.28
    0.2106              -13.62          16.95          55.01          46.55         -6.067         -13.53          35.37          1.609         -134.0           27.3           20.3
    0.2202              -13.65          16.96          55.02          46.54         -6.066         -13.52          35.34          1.647         -133.9          27.33          20.33
    0.2297              -13.68          16.97          55.03          46.54         -6.064          -13.5          35.32          1.689         -133.7          27.36          20.36
    0.2393              -13.72          16.99          55.04          46.53         -6.062         -13.48          35.29          1.735         -133.6           27.4          20.39
    0.2489              -13.76           17.0          55.06          46.52          -6.06         -13.45          35.25          1.788         -133.4          27.45          20.43
